<?xml version="1.0" encoding="UTF-8" standalone="no"?>
<svg width="535px" height="127px" viewBox="0 0 535 127" version="1.1" xmlns="http://www.w3.org/2000/svg" xmlns:xlink="http://www.w3.org/1999/xlink">
    <!-- Generator: Sketch 3.6.1 (26313) - http://www.bohemiancoding.com/sketch -->
    <title>logo</title>
    <desc>Created with Sketch.</desc>
    <defs></defs>
    <g id="Page-1" stroke="none" stroke-width="1" fill="none" fill-rule="evenodd">
        <g id="logo" fill="#FFFFFF">
            <path d="M65.608,41.472 L73.416,41.472 L64.968,96 L80.84,96 L89.416,41.472 L104.392,41.472 L106.184,30.336 L91.208,30.336 L92.104,24.704 C93.512,14.976 96.456,12.416 102.472,12.416 C105.672,12.416 108.616,13.056 111.176,13.824 L114.504,2.816 C112.2,2.048 106.696,0.512 100.552,0.512 C86.856,0.512 78.92,7.552 76.744,21.248 L75.336,30.336 L67.4,30.336 L65.608,41.472 Z M163.508308,86.144 C162.356308,86.4 161.460308,86.528 160.564308,86.528 C157.748308,86.528 157.108308,84.864 157.620308,81.536 L161.332308,58.112 C161.716308,55.296 162.100308,51.584 162.100308,49.28 C162.100308,37.632 156.212308,28.8 138.676308,28.8 C117.428308,28.8 108.852308,39.424 110.260308,54.784 L124.724308,53.504 C124.340308,45.312 126.132308,39.68 137.140308,39.68 C142.900308,39.68 146.740308,42.24 146.740308,49.408 C146.740308,51.072 146.484308,52.992 146.228308,55.04 L145.716308,57.856 C125.236308,59.008 102.964308,61.056 102.964308,81.408 C102.964308,89.984 108.212308,97.536 121.012308,97.536 C131.124308,97.536 138.548308,93.44 142.900308,87.168 C143.284308,93.312 145.716308,96.896 153.396308,96.896 C155.956308,96.896 158.900308,96.512 162.356308,95.744 L163.508308,86.144 Z M143.412308,72.704 C142.004308,80.768 135.732308,87.04 127.412308,87.04 C122.292308,87.04 119.220308,84.608 119.220308,79.616 C119.220308,68.736 132.148308,67.968 144.180308,67.456 L143.412308,72.704 Z M229.024616,47.36 C228.512616,35.2 220.960616,28.8 205.728616,28.8 C191.392616,28.8 177.440616,35.072 177.440616,50.56 C177.440616,74.752 209.568616,63.36 209.568616,77.44 C209.568616,83.456 204.704616,86.272 196.384616,86.272 C187.040616,86.272 185.248616,81.92 185.120616,75.008 L170.528616,77.44 C170.400616,91.264 179.232616,97.536 195.744616,97.536 C210.976616,97.536 225.312616,90.368 225.312616,74.88 C225.312616,50.944 192.800616,61.568 192.800616,47.872 C192.800616,41.856 197.920616,39.552 204.576616,39.552 C212.256616,39.552 214.816616,43.52 214.688616,50.304 L229.024616,47.36 Z M235.532923,41.472 L243.468923,41.472 L238.092923,75.52 C237.708923,77.696 237.580923,79.872 237.580923,81.792 C237.580923,92.672 243.724923,97.536 255.500923,97.536 C261.004923,97.536 265.996923,96.512 268.940923,95.36 L269.068923,84.352 C266.380923,85.12 263.820923,85.632 261.004923,85.632 C255.628923,85.632 253.708923,83.84 253.708923,79.232 C253.708923,77.952 253.836923,76.416 254.092923,74.752 L259.340923,41.472 L274.316923,41.472 L276.108923,30.336 L261.132923,30.336 L263.948923,11.776 L247.308923,16.512 L245.260923,30.336 L237.324923,30.336 L235.532923,41.472 Z M308.473231,2.048 L292.601231,2.048 L277.753231,96 L290.809231,96 L293.625231,88.704 L294.265231,88.704 C297.721231,94.72 304.377231,97.664 311.929231,97.664 C334.969231,97.664 344.185231,74.24 344.185231,52.992 C344.185231,36.736 335.481231,28.8 323.833231,28.8 C314.745231,28.8 307.321231,33.28 303.353231,38.144 L302.841231,38.144 L308.473231,2.048 Z M297.337231,72.832 C297.337231,61.568 301.177231,39.68 317.049231,39.68 C322.809231,39.68 327.673231,42.752 327.673231,53.76 C327.673231,64.128 323.577231,86.656 308.985231,86.656 C301.817231,86.656 297.337231,82.432 297.337231,72.832 L297.337231,72.832 Z M378.853539,85.888 C369.637539,85.888 367.077539,79.488 367.077539,71.424 C367.077539,59.136 371.045539,40.448 386.917539,40.448 C396.261539,40.448 398.821539,46.72 398.821539,55.296 C398.821539,66.816 394.469539,85.888 378.853539,85.888 L378.853539,85.888 Z M377.317539,97.536 C401.765539,97.536 415.077539,79.36 415.077539,54.4 C415.077539,37.248 404.837539,28.8 388.453539,28.8 C363.877539,28.8 350.693539,46.848 350.693539,71.808 C350.693539,88.96 361.061539,97.536 377.317539,97.536 L377.317539,97.536 Z M449.873847,85.888 C440.657847,85.888 438.097847,79.488 438.097847,71.424 C438.097847,59.136 442.065847,40.448 457.937847,40.448 C467.281847,40.448 469.841847,46.72 469.841847,55.296 C469.841847,66.816 465.489847,85.888 449.873847,85.888 L449.873847,85.888 Z M448.337847,97.536 C472.785847,97.536 486.097847,79.36 486.097847,54.4 C486.097847,37.248 475.857847,28.8 459.473847,28.8 C434.897847,28.8 421.713847,46.848 421.713847,71.808 C421.713847,88.96 432.081847,97.536 448.337847,97.536 L448.337847,97.536 Z M493.630154,41.472 L501.566154,41.472 L496.190154,75.52 C495.806154,77.696 495.678154,79.872 495.678154,81.792 C495.678154,92.672 501.822154,97.536 513.598154,97.536 C519.102154,97.536 524.094154,96.512 527.038154,95.36 L527.166154,84.352 C524.478154,85.12 521.918154,85.632 519.102154,85.632 C513.726154,85.632 511.806154,83.84 511.806154,79.232 C511.806154,77.952 511.934154,76.416 512.190154,74.752 L517.438154,41.472 L532.414154,41.472 L534.206154,30.336 L519.230154,30.336 L522.046154,11.776 L505.406154,16.512 L503.358154,30.336 L495.422154,30.336 L493.630154,41.472 Z" id="fastboot"></path>
            <path d="M69.7460937,67.0927734 L85.321045,67.0927734 L76.8413087,126.053223 L59.9604493,126.053223 L69.7460937,67.0927734 Z" id="Path-37"></path>
            <path d="M72.0604248,30.352417 L26.6701974,30.352417 L22,41.4780273 L71.2795951,41.4780273 L72.0604248,30.352417 Z" id="Path-38"></path>
            <path d="M85.321045,51.352417 L4.03871095,51.352417 L0,62.4780273 L83.0553758,62.4780273 L85.321045,51.352417 Z" id="Path-38"></path>
            <path d="M84.321045,72.352417 L36.6302535,72.352417 L34.2606202,83.4780273 L82.9917087,83.4780273 L84.321045,72.352417 Z" id="Path-38"></path>
        </g>
    </g>
</svg>